<mxfile host="65bd71144e">
    <diagram id="C5RBs43oDa-KdzZeNtuy" name="Page-1">
        <mxGraphModel dx="1972" dy="1094" grid="1" gridSize="10" guides="1" tooltips="1" connect="1" arrows="1" fold="1" page="1" pageScale="1" pageWidth="1654" pageHeight="1169" background="#fafafa" math="0" shadow="1">
            <root>
                <mxCell id="WIyWlLk6GJQsqaUBKTNV-0"/>
                <mxCell id="WIyWlLk6GJQsqaUBKTNV-1" parent="WIyWlLk6GJQsqaUBKTNV-0"/>
                <mxCell id="3" style="edgeStyle=none;html=1;exitX=0.25;exitY=0;exitDx=0;exitDy=0;strokeColor=#FF8000;fillColor=#FF8000;" parent="WIyWlLk6GJQsqaUBKTNV-1" source="zkfFHV4jXpPFQw0GAbJ--0" edge="1">
                    <mxGeometry relative="1" as="geometry">
                        <mxPoint x="760" y="340" as="targetPoint"/>
                    </mxGeometry>
                </mxCell>
                <mxCell id="18" style="edgeStyle=none;html=1;exitX=1;exitY=1;exitDx=0;exitDy=0;entryX=-0.009;entryY=0.007;entryDx=0;entryDy=0;entryPerimeter=0;strokeColor=#FF8000;fontColor=#000000;fillColor=#FF8000;" parent="WIyWlLk6GJQsqaUBKTNV-1" source="zkfFHV4jXpPFQw0GAbJ--0" target="Bw8D9-mf-STMI-rw64IU-81" edge="1">
                    <mxGeometry relative="1" as="geometry"/>
                </mxCell>
                <mxCell id="20" style="edgeStyle=none;html=1;exitX=1;exitY=0;exitDx=0;exitDy=0;strokeColor=#FF8000;fontColor=#000000;" parent="WIyWlLk6GJQsqaUBKTNV-1" source="zkfFHV4jXpPFQw0GAbJ--0" edge="1">
                    <mxGeometry relative="1" as="geometry">
                        <mxPoint x="890" y="370" as="targetPoint"/>
                    </mxGeometry>
                </mxCell>
                <mxCell id="61" style="edgeStyle=none;html=1;entryX=0.25;entryY=0;entryDx=0;entryDy=0;strokeColor=#FF8000;fontColor=#000000;fillColor=#FF8000;" edge="1" parent="WIyWlLk6GJQsqaUBKTNV-1" target="7">
                    <mxGeometry relative="1" as="geometry">
                        <mxPoint x="778" y="570" as="sourcePoint"/>
                    </mxGeometry>
                </mxCell>
                <mxCell id="zkfFHV4jXpPFQw0GAbJ--0" value="activité" style="swimlane;fontStyle=2;align=center;verticalAlign=top;childLayout=stackLayout;horizontal=1;startSize=26;horizontalStack=0;resizeParent=1;resizeLast=0;collapsible=1;marginBottom=0;rounded=0;shadow=0;strokeWidth=1;labelBackgroundColor=none;fillColor=#F2CC8F;strokeColor=#E07A5F;fontColor=#393C56;" parent="WIyWlLk6GJQsqaUBKTNV-1" vertex="1">
                    <mxGeometry x="730" y="448" width="120" height="122" as="geometry">
                        <mxRectangle x="230" y="140" width="160" height="26" as="alternateBounds"/>
                    </mxGeometry>
                </mxCell>
                <mxCell id="zkfFHV4jXpPFQw0GAbJ--1" value="nom" style="text;align=left;verticalAlign=top;spacingLeft=4;spacingRight=4;overflow=hidden;rotatable=0;points=[[0,0.5],[1,0.5]];portConstraint=eastwest;rounded=0;labelBackgroundColor=none;fontColor=#393C56;" parent="zkfFHV4jXpPFQw0GAbJ--0" vertex="1">
                    <mxGeometry y="26" width="120" height="24" as="geometry"/>
                </mxCell>
                <mxCell id="u_57cNiZf8qIz6-0h1pk-41" value="prénom" style="text;align=left;verticalAlign=top;spacingLeft=4;spacingRight=4;overflow=hidden;rotatable=0;points=[[0,0.5],[1,0.5]];portConstraint=eastwest;rounded=0;labelBackgroundColor=none;fontColor=#393C56;" parent="zkfFHV4jXpPFQw0GAbJ--0" vertex="1">
                    <mxGeometry y="50" width="120" height="30" as="geometry"/>
                </mxCell>
                <mxCell id="p7xlOEMJFDli8GuN8Mlz-6" value="notes&#10;" style="text;align=left;verticalAlign=top;spacingLeft=4;spacingRight=4;overflow=hidden;rotatable=0;points=[[0,0.5],[1,0.5]];portConstraint=eastwest;rounded=0;shadow=0;html=0;labelBackgroundColor=none;fontColor=#393C56;" parent="zkfFHV4jXpPFQw0GAbJ--0" vertex="1">
                    <mxGeometry y="80" width="120" height="26" as="geometry"/>
                </mxCell>
                <mxCell id="Bw8D9-mf-STMI-rw64IU-0" value="naissance" style="swimlane;fontStyle=2;align=center;verticalAlign=top;childLayout=stackLayout;horizontal=1;startSize=26;horizontalStack=0;resizeParent=1;resizeLast=0;collapsible=1;marginBottom=0;rounded=0;shadow=0;strokeWidth=1;labelBackgroundColor=none;fillColor=#009999;strokeColor=#E07A5F;fontColor=#393C56;" parent="WIyWlLk6GJQsqaUBKTNV-1" vertex="1">
                    <mxGeometry x="450" y="394" width="120" height="104" as="geometry">
                        <mxRectangle x="230" y="140" width="160" height="26" as="alternateBounds"/>
                    </mxGeometry>
                </mxCell>
                <mxCell id="Bw8D9-mf-STMI-rw64IU-1" value="date" style="text;align=left;verticalAlign=top;spacingLeft=4;spacingRight=4;overflow=hidden;rotatable=0;points=[[0,0.5],[1,0.5]];portConstraint=eastwest;rounded=0;labelBackgroundColor=none;fontColor=#393C56;" parent="Bw8D9-mf-STMI-rw64IU-0" vertex="1">
                    <mxGeometry y="26" width="120" height="26" as="geometry"/>
                </mxCell>
                <mxCell id="Bw8D9-mf-STMI-rw64IU-53" style="edgeStyle=elbowEdgeStyle;rounded=0;orthogonalLoop=1;jettySize=auto;elbow=vertical;html=1;exitX=0;exitY=0.5;exitDx=0;exitDy=0;labelBackgroundColor=none;fontColor=default;strokeColor=#E07A5F;" parent="Bw8D9-mf-STMI-rw64IU-0" edge="1">
                    <mxGeometry relative="1" as="geometry">
                        <mxPoint y="65" as="sourcePoint"/>
                        <mxPoint y="65" as="targetPoint"/>
                    </mxGeometry>
                </mxCell>
                <mxCell id="lIRJRWgk_XQTRXZxPNvE-15" value="notes&#10;" style="text;align=left;verticalAlign=top;spacingLeft=4;spacingRight=4;overflow=hidden;rotatable=0;points=[[0,0.5],[1,0.5]];portConstraint=eastwest;rounded=0;shadow=0;html=0;labelBackgroundColor=none;fontColor=#393C56;" parent="Bw8D9-mf-STMI-rw64IU-0" vertex="1">
                    <mxGeometry y="52" width="120" height="26" as="geometry"/>
                </mxCell>
                <mxCell id="Bw8D9-mf-STMI-rw64IU-12" value="lieu géographique " style="swimlane;fontStyle=2;align=center;verticalAlign=top;childLayout=stackLayout;horizontal=1;startSize=26;horizontalStack=0;resizeParent=1;resizeLast=0;collapsible=1;marginBottom=0;rounded=0;shadow=0;strokeWidth=1;labelBackgroundColor=none;fillColor=#F2CC8F;strokeColor=#E07A5F;fontColor=#393C56;" parent="WIyWlLk6GJQsqaUBKTNV-1" vertex="1">
                    <mxGeometry x="500" y="190" width="170" height="160" as="geometry">
                        <mxRectangle x="230" y="140" width="160" height="26" as="alternateBounds"/>
                    </mxGeometry>
                </mxCell>
                <mxCell id="Bw8D9-mf-STMI-rw64IU-13" value="nom" style="text;align=left;verticalAlign=top;spacingLeft=4;spacingRight=4;overflow=hidden;rotatable=0;points=[[0,0.5],[1,0.5]];portConstraint=eastwest;rounded=0;labelBackgroundColor=none;fontColor=#393C56;" parent="Bw8D9-mf-STMI-rw64IU-12" vertex="1">
                    <mxGeometry y="26" width="170" height="26" as="geometry"/>
                </mxCell>
                <mxCell id="Bw8D9-mf-STMI-rw64IU-14" value="région " style="text;align=left;verticalAlign=top;spacingLeft=4;spacingRight=4;overflow=hidden;rotatable=0;points=[[0,0.5],[1,0.5]];portConstraint=eastwest;rounded=0;shadow=0;html=0;labelBackgroundColor=none;fontColor=#393C56;" parent="Bw8D9-mf-STMI-rw64IU-12" vertex="1">
                    <mxGeometry y="52" width="170" height="28" as="geometry"/>
                </mxCell>
                <mxCell id="Bw8D9-mf-STMI-rw64IU-24" value="longitude" style="text;align=left;verticalAlign=top;spacingLeft=4;spacingRight=4;overflow=hidden;rotatable=0;points=[[0,0.5],[1,0.5]];portConstraint=eastwest;rounded=0;shadow=0;html=0;labelBackgroundColor=none;fontColor=#393C56;" parent="Bw8D9-mf-STMI-rw64IU-12" vertex="1">
                    <mxGeometry y="80" width="170" height="26" as="geometry"/>
                </mxCell>
                <mxCell id="Bw8D9-mf-STMI-rw64IU-25" value="latitude" style="text;align=left;verticalAlign=top;spacingLeft=4;spacingRight=4;overflow=hidden;rotatable=0;points=[[0,0.5],[1,0.5]];portConstraint=eastwest;rounded=0;shadow=0;html=0;labelBackgroundColor=none;fontColor=#393C56;" parent="Bw8D9-mf-STMI-rw64IU-12" vertex="1">
                    <mxGeometry y="106" width="170" height="26" as="geometry"/>
                </mxCell>
                <mxCell id="p7xlOEMJFDli8GuN8Mlz-14" value="notes&#10;" style="text;align=left;verticalAlign=top;spacingLeft=4;spacingRight=4;overflow=hidden;rotatable=0;points=[[0,0.5],[1,0.5]];portConstraint=eastwest;rounded=0;shadow=0;html=0;labelBackgroundColor=none;fontColor=#393C56;" parent="Bw8D9-mf-STMI-rw64IU-12" vertex="1">
                    <mxGeometry y="132" width="170" height="26" as="geometry"/>
                </mxCell>
                <mxCell id="Bw8D9-mf-STMI-rw64IU-49" value="" style="endArrow=classic;html=1;rounded=0;labelBackgroundColor=none;fontColor=default;strokeColor=#E07A5F;exitX=-0.025;exitY=-0.212;exitDx=0;exitDy=0;exitPerimeter=0;" parent="WIyWlLk6GJQsqaUBKTNV-1" edge="1" source="lIRJRWgk_XQTRXZxPNvE-15">
                    <mxGeometry relative="1" as="geometry">
                        <mxPoint x="400" y="498" as="sourcePoint"/>
                        <mxPoint x="500" y="278" as="targetPoint"/>
                        <Array as="points">
                            <mxPoint x="320" y="440"/>
                            <mxPoint x="320" y="278"/>
                        </Array>
                    </mxGeometry>
                </mxCell>
                <mxCell id="Bw8D9-mf-STMI-rw64IU-50" value="est nait a&amp;nbsp;" style="edgeLabel;resizable=0;html=1;align=center;verticalAlign=middle;rounded=0;labelBackgroundColor=none;fontColor=#393C56;" parent="Bw8D9-mf-STMI-rw64IU-49" connectable="0" vertex="1">
                    <mxGeometry relative="1" as="geometry">
                        <mxPoint x="30" y="56" as="offset"/>
                    </mxGeometry>
                </mxCell>
                <mxCell id="Bw8D9-mf-STMI-rw64IU-51" value="1" style="edgeLabel;html=1;align=center;verticalAlign=middle;resizable=0;points=[];rounded=0;labelBackgroundColor=none;fontColor=#393C56;" parent="Bw8D9-mf-STMI-rw64IU-49" vertex="1" connectable="0">
                    <mxGeometry x="0.8885" y="-1" relative="1" as="geometry">
                        <mxPoint x="15.55" y="-11.69" as="offset"/>
                    </mxGeometry>
                </mxCell>
                <mxCell id="Bw8D9-mf-STMI-rw64IU-52" value="0..n" style="edgeLabel;html=1;align=center;verticalAlign=middle;resizable=0;points=[];rounded=0;labelBackgroundColor=none;fontColor=#393C56;" parent="Bw8D9-mf-STMI-rw64IU-49" vertex="1" connectable="0">
                    <mxGeometry x="-0.8808" y="-1" relative="1" as="geometry">
                        <mxPoint x="-14.14" y="-11" as="offset"/>
                    </mxGeometry>
                </mxCell>
                <mxCell id="Bw8D9-mf-STMI-rw64IU-86" value="métier " style="swimlane;fontStyle=2;align=center;verticalAlign=top;childLayout=stackLayout;horizontal=1;startSize=40;horizontalStack=0;resizeParent=1;resizeLast=0;collapsible=1;marginBottom=0;rounded=0;shadow=0;strokeWidth=1;labelBackgroundColor=none;fillColor=#FFCC99;strokeColor=#E07A5F;fontColor=#393C56;" parent="WIyWlLk6GJQsqaUBKTNV-1" vertex="1">
                    <mxGeometry x="1200" y="480" width="110" height="168" as="geometry">
                        <mxRectangle x="230" y="140" width="160" height="26" as="alternateBounds"/>
                    </mxGeometry>
                </mxCell>
                <mxCell id="Bw8D9-mf-STMI-rw64IU-87" value="nom " style="text;align=left;verticalAlign=top;spacingLeft=4;spacingRight=4;overflow=hidden;rotatable=0;points=[[0,0.5],[1,0.5]];portConstraint=eastwest;rounded=0;labelBackgroundColor=none;fontColor=#393C56;" parent="Bw8D9-mf-STMI-rw64IU-86" vertex="1">
                    <mxGeometry y="40" width="110" height="26" as="geometry"/>
                </mxCell>
                <mxCell id="Bw8D9-mf-STMI-rw64IU-88" value="" style="endArrow=classic;html=1;entryX=0.5;entryY=1;entryDx=0;entryDy=0;exitX=0.994;exitY=1.122;exitDx=0;exitDy=0;exitPerimeter=0;rounded=0;labelBackgroundColor=none;fontColor=default;strokeColor=#E07A5F;" parent="Bw8D9-mf-STMI-rw64IU-86" target="Bw8D9-mf-STMI-rw64IU-86" edge="1">
                    <mxGeometry relative="1" as="geometry">
                        <mxPoint x="109.34000000000015" y="95.17200000000003" as="sourcePoint"/>
                        <mxPoint x="-30" y="140" as="targetPoint"/>
                        <Array as="points">
                            <mxPoint x="190" y="95"/>
                            <mxPoint x="190" y="200"/>
                            <mxPoint x="55" y="200"/>
                        </Array>
                    </mxGeometry>
                </mxCell>
                <mxCell id="Bw8D9-mf-STMI-rw64IU-90" value="specializes occupation" style="edgeLabel;resizable=0;html=1;align=center;verticalAlign=middle;rounded=0;labelBackgroundColor=none;fontColor=#393C56;" parent="Bw8D9-mf-STMI-rw64IU-88" connectable="0" vertex="1">
                    <mxGeometry relative="1" as="geometry">
                        <mxPoint x="-70" y="-1.0099999999999998" as="offset"/>
                    </mxGeometry>
                </mxCell>
                <mxCell id="Bw8D9-mf-STMI-rw64IU-91" value="0..n" style="edgeLabel;html=1;align=center;verticalAlign=middle;resizable=0;points=[];rounded=0;labelBackgroundColor=none;fontColor=#393C56;" parent="Bw8D9-mf-STMI-rw64IU-88" vertex="1" connectable="0">
                    <mxGeometry x="-0.8808" y="-1" relative="1" as="geometry">
                        <mxPoint x="-0.17999999999999972" y="-11" as="offset"/>
                    </mxGeometry>
                </mxCell>
                <mxCell id="Bw8D9-mf-STMI-rw64IU-89" value="0..n" style="edgeLabel;html=1;align=center;verticalAlign=middle;resizable=0;points=[];rounded=0;labelBackgroundColor=none;fontColor=#393C56;" parent="Bw8D9-mf-STMI-rw64IU-88" vertex="1" connectable="0">
                    <mxGeometry x="0.8885" y="-1" relative="1" as="geometry">
                        <mxPoint x="-26" y="2.4400000000000013" as="offset"/>
                    </mxGeometry>
                </mxCell>
                <mxCell id="p7xlOEMJFDli8GuN8Mlz-2" value="definition" style="text;align=left;verticalAlign=top;spacingLeft=4;spacingRight=4;overflow=hidden;rotatable=0;points=[[0,0.5],[1,0.5]];portConstraint=eastwest;rounded=0;shadow=0;html=0;labelBackgroundColor=none;fontColor=#393C56;" parent="Bw8D9-mf-STMI-rw64IU-86" vertex="1">
                    <mxGeometry y="66" width="110" height="26" as="geometry"/>
                </mxCell>
                <mxCell id="p7xlOEMJFDli8GuN8Mlz-8" value="notes&#10;" style="text;align=left;verticalAlign=top;spacingLeft=4;spacingRight=4;overflow=hidden;rotatable=0;points=[[0,0.5],[1,0.5]];portConstraint=eastwest;rounded=0;shadow=0;html=0;labelBackgroundColor=none;fontColor=#393C56;" parent="Bw8D9-mf-STMI-rw64IU-86" vertex="1">
                    <mxGeometry y="92" width="110" height="26" as="geometry"/>
                </mxCell>
                <mxCell id="Bw8D9-mf-STMI-rw64IU-77" value="pursuit" style="swimlane;fontStyle=2;align=center;verticalAlign=top;childLayout=stackLayout;horizontal=1;startSize=26;horizontalStack=0;resizeParent=1;resizeLast=0;collapsible=1;marginBottom=0;rounded=0;shadow=0;strokeWidth=1;labelBackgroundColor=none;fillColor=#009999;strokeColor=#67AB9F;fontColor=#393C56;" parent="WIyWlLk6GJQsqaUBKTNV-1" vertex="1">
                    <mxGeometry x="980" y="490" width="110" height="140" as="geometry">
                        <mxRectangle x="230" y="140" width="160" height="26" as="alternateBounds"/>
                    </mxGeometry>
                </mxCell>
                <mxCell id="Bw8D9-mf-STMI-rw64IU-78" value="begin date" style="text;align=left;verticalAlign=top;spacingLeft=4;spacingRight=4;overflow=hidden;rotatable=0;points=[[0,0.5],[1,0.5]];portConstraint=eastwest;rounded=0;labelBackgroundColor=none;fontColor=#393C56;" parent="Bw8D9-mf-STMI-rw64IU-77" vertex="1">
                    <mxGeometry y="26" width="110" height="26" as="geometry"/>
                </mxCell>
                <mxCell id="Bw8D9-mf-STMI-rw64IU-79" value="end date" style="text;align=left;verticalAlign=top;spacingLeft=4;spacingRight=4;overflow=hidden;rotatable=0;points=[[0,0.5],[1,0.5]];portConstraint=eastwest;rounded=0;shadow=0;html=0;labelBackgroundColor=none;fontColor=#393C56;" parent="Bw8D9-mf-STMI-rw64IU-77" vertex="1">
                    <mxGeometry y="52" width="110" height="26" as="geometry"/>
                </mxCell>
                <mxCell id="Bw8D9-mf-STMI-rw64IU-80" style="edgeStyle=elbowEdgeStyle;rounded=0;orthogonalLoop=1;jettySize=auto;elbow=vertical;html=1;exitX=0;exitY=0.5;exitDx=0;exitDy=0;labelBackgroundColor=none;fontColor=default;strokeColor=#E07A5F;" parent="Bw8D9-mf-STMI-rw64IU-77" source="Bw8D9-mf-STMI-rw64IU-79" target="Bw8D9-mf-STMI-rw64IU-79" edge="1">
                    <mxGeometry relative="1" as="geometry"/>
                </mxCell>
                <mxCell id="Bw8D9-mf-STMI-rw64IU-81" value="sources" style="text;align=left;verticalAlign=top;spacingLeft=4;spacingRight=4;overflow=hidden;rotatable=0;points=[[0,0.5],[1,0.5]];portConstraint=eastwest;rounded=0;shadow=0;html=0;labelBackgroundColor=none;fontColor=#393C56;" parent="Bw8D9-mf-STMI-rw64IU-77" vertex="1">
                    <mxGeometry y="78" width="110" height="26" as="geometry"/>
                </mxCell>
                <mxCell id="p7xlOEMJFDli8GuN8Mlz-15" value="notes&#10;" style="text;align=left;verticalAlign=top;spacingLeft=4;spacingRight=4;overflow=hidden;rotatable=0;points=[[0,0.5],[1,0.5]];portConstraint=eastwest;rounded=0;shadow=0;html=0;labelBackgroundColor=none;fontColor=#393C56;" parent="Bw8D9-mf-STMI-rw64IU-77" vertex="1">
                    <mxGeometry y="104" width="110" height="26" as="geometry"/>
                </mxCell>
                <mxCell id="Bw8D9-mf-STMI-rw64IU-93" value="" style="endArrow=none;html=1;exitX=0;exitY=0.5;exitDx=0;exitDy=0;startArrow=classic;startFill=1;endFill=0;rounded=0;labelBackgroundColor=none;fontColor=default;strokeColor=#E07A5F;entryX=0.991;entryY=-0.308;entryDx=0;entryDy=0;entryPerimeter=0;" parent="WIyWlLk6GJQsqaUBKTNV-1" target="Bw8D9-mf-STMI-rw64IU-81" edge="1">
                    <mxGeometry x="-0.0061" relative="1" as="geometry">
                        <mxPoint x="1200" y="559" as="sourcePoint"/>
                        <mxPoint x="1100" y="559" as="targetPoint"/>
                        <mxPoint as="offset"/>
                    </mxGeometry>
                </mxCell>
                <mxCell id="Bw8D9-mf-STMI-rw64IU-94" value="is pursuit of" style="edgeLabel;resizable=0;html=1;align=center;verticalAlign=middle;rounded=0;labelBackgroundColor=none;fontColor=#393C56;rotation=0;" parent="Bw8D9-mf-STMI-rw64IU-93" connectable="0" vertex="1">
                    <mxGeometry relative="1" as="geometry">
                        <mxPoint x="-5" y="13" as="offset"/>
                    </mxGeometry>
                </mxCell>
                <mxCell id="Bw8D9-mf-STMI-rw64IU-95" value="1" style="edgeLabel;resizable=0;html=1;align=left;verticalAlign=bottom;rounded=0;labelBackgroundColor=none;fontColor=#393C56;" parent="Bw8D9-mf-STMI-rw64IU-93" connectable="0" vertex="1">
                    <mxGeometry x="-1" relative="1" as="geometry">
                        <mxPoint x="-20" y="-9" as="offset"/>
                    </mxGeometry>
                </mxCell>
                <mxCell id="Bw8D9-mf-STMI-rw64IU-96" value="0..n" style="edgeLabel;resizable=0;html=1;align=right;verticalAlign=bottom;rounded=0;labelBackgroundColor=none;fontColor=#393C56;" parent="Bw8D9-mf-STMI-rw64IU-93" connectable="0" vertex="1">
                    <mxGeometry x="1" relative="1" as="geometry">
                        <mxPoint x="20" y="-5" as="offset"/>
                    </mxGeometry>
                </mxCell>
                <mxCell id="55" value="is pursuit of" style="edgeLabel;resizable=0;html=1;align=center;verticalAlign=middle;rounded=0;labelBackgroundColor=none;fontColor=#393C56;rotation=0;" connectable="0" vertex="1" parent="Bw8D9-mf-STMI-rw64IU-93">
                    <mxGeometry relative="1" as="geometry">
                        <mxPoint x="-44" y="-129" as="offset"/>
                    </mxGeometry>
                </mxCell>
                <mxCell id="Bw8D9-mf-STMI-rw64IU-130" value="" style="endArrow=classic;html=1;entryX=0.575;entryY=-0.007;entryDx=0;entryDy=0;rounded=0;labelBackgroundColor=none;fontColor=default;strokeColor=#E07A5F;entryPerimeter=0;exitX=0.75;exitY=0;exitDx=0;exitDy=0;" parent="WIyWlLk6GJQsqaUBKTNV-1" source="Bw8D9-mf-STMI-rw64IU-128" target="Bw8D9-mf-STMI-rw64IU-12" edge="1">
                    <mxGeometry relative="1" as="geometry">
                        <mxPoint x="1240" y="260" as="sourcePoint"/>
                        <mxPoint x="1160" y="324" as="targetPoint"/>
                        <Array as="points">
                            <mxPoint x="1240" y="150"/>
                            <mxPoint x="600" y="150"/>
                        </Array>
                    </mxGeometry>
                </mxCell>
                <mxCell id="Bw8D9-mf-STMI-rw64IU-131" value="se localise à" style="edgeLabel;resizable=0;html=1;align=center;verticalAlign=middle;rounded=0;labelBackgroundColor=none;fontColor=#393C56;" parent="Bw8D9-mf-STMI-rw64IU-130" connectable="0" vertex="1">
                    <mxGeometry relative="1" as="geometry">
                        <mxPoint x="-70" y="10" as="offset"/>
                    </mxGeometry>
                </mxCell>
                <mxCell id="Bw8D9-mf-STMI-rw64IU-132" value="0..n" style="edgeLabel;html=1;align=center;verticalAlign=middle;resizable=0;points=[];rounded=0;labelBackgroundColor=none;fontColor=#393C56;" parent="Bw8D9-mf-STMI-rw64IU-130" vertex="1" connectable="0">
                    <mxGeometry x="-0.8808" y="-1" relative="1" as="geometry">
                        <mxPoint x="13" y="11" as="offset"/>
                    </mxGeometry>
                </mxCell>
                <mxCell id="Bw8D9-mf-STMI-rw64IU-133" value="1" style="edgeLabel;html=1;align=center;verticalAlign=middle;resizable=0;points=[];rounded=0;labelBackgroundColor=none;fontColor=#393C56;" parent="Bw8D9-mf-STMI-rw64IU-130" vertex="1" connectable="0">
                    <mxGeometry x="0.8885" y="-1" relative="1" as="geometry">
                        <mxPoint x="-26" y="31" as="offset"/>
                    </mxGeometry>
                </mxCell>
                <mxCell id="Bw8D9-mf-STMI-rw64IU-128" value="organisation" style="swimlane;fontStyle=2;align=center;verticalAlign=top;childLayout=stackLayout;horizontal=1;startSize=40;horizontalStack=0;resizeParent=1;resizeLast=0;collapsible=1;marginBottom=0;rounded=0;shadow=0;strokeWidth=1;labelBackgroundColor=none;fillColor=#F2CC8F;strokeColor=#E07A5F;fontColor=#393C56;" parent="WIyWlLk6GJQsqaUBKTNV-1" vertex="1">
                    <mxGeometry x="1160" y="270" width="110" height="130" as="geometry">
                        <mxRectangle x="230" y="140" width="160" height="26" as="alternateBounds"/>
                    </mxGeometry>
                </mxCell>
                <mxCell id="Bw8D9-mf-STMI-rw64IU-129" value="nom" style="text;align=left;verticalAlign=top;spacingLeft=4;spacingRight=4;overflow=hidden;rotatable=0;points=[[0,0.5],[1,0.5]];portConstraint=eastwest;rounded=0;labelBackgroundColor=none;fontColor=#393C56;" parent="Bw8D9-mf-STMI-rw64IU-128" vertex="1">
                    <mxGeometry y="40" width="110" height="26" as="geometry"/>
                </mxCell>
                <mxCell id="p7xlOEMJFDli8GuN8Mlz-3" value="definition" style="text;align=left;verticalAlign=top;spacingLeft=4;spacingRight=4;overflow=hidden;rotatable=0;points=[[0,0.5],[1,0.5]];portConstraint=eastwest;rounded=0;shadow=0;html=0;labelBackgroundColor=none;fontColor=#393C56;" parent="Bw8D9-mf-STMI-rw64IU-128" vertex="1">
                    <mxGeometry y="66" width="110" height="28" as="geometry"/>
                </mxCell>
                <mxCell id="p7xlOEMJFDli8GuN8Mlz-11" value="notes&#10;" style="text;align=left;verticalAlign=top;spacingLeft=4;spacingRight=4;overflow=hidden;rotatable=0;points=[[0,0.5],[1,0.5]];portConstraint=eastwest;rounded=0;shadow=0;html=0;labelBackgroundColor=none;fontColor=#393C56;" parent="Bw8D9-mf-STMI-rw64IU-128" vertex="1">
                    <mxGeometry y="94" width="110" height="26" as="geometry"/>
                </mxCell>
                <mxCell id="Bw8D9-mf-STMI-rw64IU-135" value="&lt;font color=&quot;#000000&quot;&gt;fait ses études dans&lt;/font&gt;" style="endArrow=classic;html=1;exitX=0.5;exitY=0;exitDx=0;exitDy=0;entryX=0.5;entryY=1;entryDx=0;entryDy=0;rounded=0;labelBackgroundColor=none;fontColor=default;strokeColor=#E07A5F;" parent="WIyWlLk6GJQsqaUBKTNV-1" source="Bw8D9-mf-STMI-rw64IU-77" target="Bw8D9-mf-STMI-rw64IU-128" edge="1">
                    <mxGeometry x="-1" y="131" relative="1" as="geometry">
                        <mxPoint x="1210" y="569" as="sourcePoint"/>
                        <mxPoint x="1100" y="635" as="targetPoint"/>
                        <mxPoint x="-17" y="15" as="offset"/>
                    </mxGeometry>
                </mxCell>
                <mxCell id="Bw8D9-mf-STMI-rw64IU-137" value="0..n" style="edgeLabel;resizable=0;html=1;align=left;verticalAlign=bottom;rounded=0;labelBackgroundColor=none;fontColor=#393C56;" parent="Bw8D9-mf-STMI-rw64IU-135" connectable="0" vertex="1">
                    <mxGeometry x="-1" relative="1" as="geometry">
                        <mxPoint x="-20" as="offset"/>
                    </mxGeometry>
                </mxCell>
                <mxCell id="Bw8D9-mf-STMI-rw64IU-138" value="1" style="edgeLabel;resizable=0;html=1;align=right;verticalAlign=bottom;rounded=0;labelBackgroundColor=none;fontColor=#393C56;" parent="Bw8D9-mf-STMI-rw64IU-135" connectable="0" vertex="1">
                    <mxGeometry x="1" relative="1" as="geometry">
                        <mxPoint x="24" y="20" as="offset"/>
                    </mxGeometry>
                </mxCell>
                <mxCell id="u_57cNiZf8qIz6-0h1pk-18" value="type" style="swimlane;fontStyle=2;align=center;verticalAlign=top;childLayout=stackLayout;horizontal=1;startSize=40;horizontalStack=0;resizeParent=1;resizeLast=0;collapsible=1;marginBottom=0;rounded=0;shadow=0;strokeWidth=1;labelBackgroundColor=none;fillColor=#FFCC99;strokeColor=#FF8000;fontColor=#393C56;" parent="WIyWlLk6GJQsqaUBKTNV-1" vertex="1">
                    <mxGeometry x="1320" y="833" width="110" height="127" as="geometry">
                        <mxRectangle x="230" y="140" width="160" height="26" as="alternateBounds"/>
                    </mxGeometry>
                </mxCell>
                <mxCell id="p7xlOEMJFDli8GuN8Mlz-31" value="nom" style="text;align=left;verticalAlign=top;spacingLeft=4;spacingRight=4;overflow=hidden;rotatable=0;points=[[0,0.5],[1,0.5]];portConstraint=eastwest;rounded=0;labelBackgroundColor=none;fontColor=#393C56;" parent="u_57cNiZf8qIz6-0h1pk-18" vertex="1">
                    <mxGeometry y="40" width="110" height="26" as="geometry"/>
                </mxCell>
                <mxCell id="p7xlOEMJFDli8GuN8Mlz-1" value="definition" style="text;align=left;verticalAlign=top;spacingLeft=4;spacingRight=4;overflow=hidden;rotatable=0;points=[[0,0.5],[1,0.5]];portConstraint=eastwest;rounded=0;shadow=0;html=0;labelBackgroundColor=none;fontColor=#393C56;" parent="u_57cNiZf8qIz6-0h1pk-18" vertex="1">
                    <mxGeometry y="66" width="110" height="26" as="geometry"/>
                </mxCell>
                <mxCell id="p7xlOEMJFDli8GuN8Mlz-9" value="notes&#10;" style="text;align=left;verticalAlign=top;spacingLeft=4;spacingRight=4;overflow=hidden;rotatable=0;points=[[0,0.5],[1,0.5]];portConstraint=eastwest;rounded=0;shadow=0;html=0;labelBackgroundColor=none;fontColor=#393C56;" parent="u_57cNiZf8qIz6-0h1pk-18" vertex="1">
                    <mxGeometry y="92" width="110" height="26" as="geometry"/>
                </mxCell>
                <mxCell id="u_57cNiZf8qIz6-0h1pk-56" value="1" style="text;html=1;align=center;verticalAlign=middle;resizable=0;points=[];autosize=1;strokeColor=none;fillColor=none;fontSize=11;rounded=0;labelBackgroundColor=none;fontColor=#393C56;" parent="WIyWlLk6GJQsqaUBKTNV-1" vertex="1">
                    <mxGeometry x="250" y="168" width="30" height="30" as="geometry"/>
                </mxCell>
                <mxCell id="_vozTY5XuUaW1i8RwrUc-5" value="oeuvre fait par" style="text;html=1;align=center;verticalAlign=middle;resizable=0;points=[];autosize=1;strokeColor=none;fillColor=none;fontColor=#393C56;rotation=0;" parent="WIyWlLk6GJQsqaUBKTNV-1" vertex="1">
                    <mxGeometry x="785" y="670" width="100" height="30" as="geometry"/>
                </mxCell>
                <mxCell id="p7xlOEMJFDli8GuN8Mlz-17" value="artefact" style="swimlane;fontStyle=2;align=center;verticalAlign=top;childLayout=stackLayout;horizontal=1;startSize=40;horizontalStack=0;resizeParent=1;resizeLast=0;collapsible=1;marginBottom=0;rounded=0;shadow=0;strokeWidth=1;labelBackgroundColor=none;fillColor=#FFCC99;strokeColor=#E07A5F;fontColor=#393C56;" parent="WIyWlLk6GJQsqaUBKTNV-1" vertex="1">
                    <mxGeometry x="1050" y="830" width="110" height="168" as="geometry">
                        <mxRectangle x="230" y="140" width="160" height="26" as="alternateBounds"/>
                    </mxGeometry>
                </mxCell>
                <mxCell id="p7xlOEMJFDli8GuN8Mlz-18" value="nom" style="text;align=left;verticalAlign=top;spacingLeft=4;spacingRight=4;overflow=hidden;rotatable=0;points=[[0,0.5],[1,0.5]];portConstraint=eastwest;rounded=0;labelBackgroundColor=none;fontColor=#393C56;" parent="p7xlOEMJFDli8GuN8Mlz-17" vertex="1">
                    <mxGeometry y="40" width="110" height="26" as="geometry"/>
                </mxCell>
                <mxCell id="p7xlOEMJFDli8GuN8Mlz-19" value="date" style="text;align=left;verticalAlign=top;spacingLeft=4;spacingRight=4;overflow=hidden;rotatable=0;points=[[0,0.5],[1,0.5]];portConstraint=eastwest;rounded=0;shadow=0;html=0;labelBackgroundColor=none;fontColor=#393C56;" parent="p7xlOEMJFDli8GuN8Mlz-17" vertex="1">
                    <mxGeometry y="66" width="110" height="26" as="geometry"/>
                </mxCell>
                <mxCell id="p7xlOEMJFDli8GuN8Mlz-20" value="definition" style="text;align=left;verticalAlign=top;spacingLeft=4;spacingRight=4;overflow=hidden;rotatable=0;points=[[0,0.5],[1,0.5]];portConstraint=eastwest;rounded=0;shadow=0;html=0;labelBackgroundColor=none;fontColor=#393C56;" parent="p7xlOEMJFDli8GuN8Mlz-17" vertex="1">
                    <mxGeometry y="92" width="110" height="26" as="geometry"/>
                </mxCell>
                <mxCell id="p7xlOEMJFDli8GuN8Mlz-21" value="notes&#10;" style="text;align=left;verticalAlign=top;spacingLeft=4;spacingRight=4;overflow=hidden;rotatable=0;points=[[0,0.5],[1,0.5]];portConstraint=eastwest;rounded=0;shadow=0;html=0;labelBackgroundColor=none;fontColor=#393C56;" parent="p7xlOEMJFDli8GuN8Mlz-17" vertex="1">
                    <mxGeometry y="118" width="110" height="26" as="geometry"/>
                </mxCell>
                <mxCell id="p7xlOEMJFDli8GuN8Mlz-23" style="edgeStyle=orthogonalEdgeStyle;rounded=0;orthogonalLoop=1;jettySize=auto;html=1;exitX=1;exitY=0.5;exitDx=0;exitDy=0;entryX=0;entryY=0.25;entryDx=0;entryDy=0;strokeColor=#FF8000;" parent="WIyWlLk6GJQsqaUBKTNV-1" source="p7xlOEMJFDli8GuN8Mlz-21" target="u_57cNiZf8qIz6-0h1pk-18" edge="1">
                    <mxGeometry relative="1" as="geometry"/>
                </mxCell>
                <mxCell id="p7xlOEMJFDli8GuN8Mlz-25" value="&lt;font color=&quot;#000000&quot;&gt;typologie&amp;nbsp;&lt;/font&gt;" style="text;html=1;strokeColor=none;fillColor=none;align=center;verticalAlign=middle;whiteSpace=wrap;rounded=0;" parent="WIyWlLk6GJQsqaUBKTNV-1" vertex="1">
                    <mxGeometry x="1200" y="730" width="60" height="240" as="geometry"/>
                </mxCell>
                <mxCell id="p7xlOEMJFDli8GuN8Mlz-28" value="0..n" style="text;html=1;strokeColor=none;fillColor=none;align=center;verticalAlign=middle;whiteSpace=wrap;rounded=0;" parent="WIyWlLk6GJQsqaUBKTNV-1" vertex="1">
                    <mxGeometry x="1150" y="935" width="60" height="20" as="geometry"/>
                </mxCell>
                <mxCell id="qX1tbO1nKQoAiDaZzixz-0" value="sujet artistique" style="swimlane;fontStyle=2;align=center;verticalAlign=top;childLayout=stackLayout;horizontal=1;startSize=40;horizontalStack=0;resizeParent=1;resizeLast=0;collapsible=1;marginBottom=0;rounded=0;shadow=0;strokeWidth=1;labelBackgroundColor=none;fillColor=#F2CC8F;strokeColor=#E07A5F;fontColor=#393C56;" parent="WIyWlLk6GJQsqaUBKTNV-1" vertex="1">
                    <mxGeometry x="330" y="690" width="110" height="122" as="geometry">
                        <mxRectangle x="230" y="140" width="160" height="26" as="alternateBounds"/>
                    </mxGeometry>
                </mxCell>
                <mxCell id="qX1tbO1nKQoAiDaZzixz-1" value="nom" style="text;align=left;verticalAlign=top;spacingLeft=4;spacingRight=4;overflow=hidden;rotatable=0;points=[[0,0.5],[1,0.5]];portConstraint=eastwest;rounded=0;labelBackgroundColor=none;fontColor=#393C56;" parent="qX1tbO1nKQoAiDaZzixz-0" vertex="1">
                    <mxGeometry y="40" width="110" height="26" as="geometry"/>
                </mxCell>
                <mxCell id="qX1tbO1nKQoAiDaZzixz-3" value="notes&#10;" style="text;align=left;verticalAlign=top;spacingLeft=4;spacingRight=4;overflow=hidden;rotatable=0;points=[[0,0.5],[1,0.5]];portConstraint=eastwest;rounded=0;shadow=0;html=0;labelBackgroundColor=none;fontColor=#393C56;" parent="qX1tbO1nKQoAiDaZzixz-0" vertex="1">
                    <mxGeometry y="66" width="110" height="26" as="geometry"/>
                </mxCell>
                <mxCell id="qX1tbO1nKQoAiDaZzixz-4" style="edgeStyle=orthogonalEdgeStyle;rounded=0;orthogonalLoop=1;jettySize=auto;html=1;exitX=0;exitY=0.5;exitDx=0;exitDy=0;entryX=1;entryY=0.5;entryDx=0;entryDy=0;strokeColor=#FF9933;" parent="WIyWlLk6GJQsqaUBKTNV-1" source="p7xlOEMJFDli8GuN8Mlz-6" target="14" edge="1">
                    <mxGeometry relative="1" as="geometry">
                        <Array as="points">
                            <mxPoint x="540" y="541"/>
                            <mxPoint x="540" y="620"/>
                            <mxPoint x="385" y="620"/>
                            <mxPoint x="385" y="633"/>
                        </Array>
                    </mxGeometry>
                </mxCell>
                <mxCell id="lIRJRWgk_XQTRXZxPNvE-2" value="1" style="text;html=1;align=center;verticalAlign=middle;resizable=0;points=[];autosize=1;strokeColor=none;fillColor=none;" parent="WIyWlLk6GJQsqaUBKTNV-1" vertex="1">
                    <mxGeometry x="1015" y="878" width="30" height="30" as="geometry"/>
                </mxCell>
                <mxCell id="lIRJRWgk_XQTRXZxPNvE-5" value="&lt;font color=&quot;#000000&quot;&gt;préfère une certain type de&amp;nbsp;&lt;/font&gt;" style="text;html=1;align=center;verticalAlign=middle;resizable=0;points=[];autosize=1;strokeColor=none;fillColor=none;" parent="WIyWlLk6GJQsqaUBKTNV-1" vertex="1">
                    <mxGeometry x="380" y="618" width="170" height="30" as="geometry"/>
                </mxCell>
                <mxCell id="lIRJRWgk_XQTRXZxPNvE-8" value="0..n" style="text;html=1;align=center;verticalAlign=middle;resizable=0;points=[];autosize=1;strokeColor=none;fillColor=none;" parent="WIyWlLk6GJQsqaUBKTNV-1" vertex="1">
                    <mxGeometry x="580" y="778" width="40" height="30" as="geometry"/>
                </mxCell>
                <mxCell id="lIRJRWgk_XQTRXZxPNvE-12" value="&lt;font color=&quot;#000000&quot;&gt;0..n&lt;/font&gt;" style="text;html=1;align=center;verticalAlign=middle;resizable=0;points=[];autosize=1;strokeColor=#FFFFFF;fillColor=none;" parent="WIyWlLk6GJQsqaUBKTNV-1" vertex="1">
                    <mxGeometry x="932" y="534" width="40" height="30" as="geometry"/>
                </mxCell>
                <mxCell id="lIRJRWgk_XQTRXZxPNvE-19" value="&lt;font color=&quot;#000000&quot;&gt;arive dans le monde&amp;nbsp;&lt;/font&gt;" style="text;html=1;align=center;verticalAlign=middle;resizable=0;points=[];autosize=1;strokeColor=none;fillColor=none;shadow=1;rotation=15;" parent="WIyWlLk6GJQsqaUBKTNV-1" vertex="1">
                    <mxGeometry x="590" y="460" width="130" height="30" as="geometry"/>
                </mxCell>
                <mxCell id="lIRJRWgk_XQTRXZxPNvE-16" value="0..n" style="text;html=1;align=center;verticalAlign=middle;resizable=0;points=[];autosize=1;strokeColor=none;fillColor=none;fontSize=11;rounded=0;labelBackgroundColor=none;fontColor=#393C56;" parent="WIyWlLk6GJQsqaUBKTNV-1" vertex="1">
                    <mxGeometry x="260" y="600" width="120" height="30" as="geometry"/>
                </mxCell>
                <mxCell id="lIRJRWgk_XQTRXZxPNvE-33" value="1" style="text;html=1;align=center;verticalAlign=middle;resizable=0;points=[];autosize=1;strokeColor=none;fillColor=none;" parent="WIyWlLk6GJQsqaUBKTNV-1" vertex="1">
                    <mxGeometry x="495" y="160" width="30" height="30" as="geometry"/>
                </mxCell>
                <mxCell id="0" value="type d'artiste" style="swimlane;fontStyle=2;align=center;verticalAlign=top;childLayout=stackLayout;horizontal=1;startSize=40;horizontalStack=0;resizeParent=1;resizeLast=0;collapsible=1;marginBottom=0;rounded=0;shadow=0;strokeWidth=1;labelBackgroundColor=none;fillColor=#F2CC8F;strokeColor=#E07A5F;fontColor=#393C56;" parent="WIyWlLk6GJQsqaUBKTNV-1" vertex="1">
                    <mxGeometry x="735" y="230" width="110" height="108" as="geometry">
                        <mxRectangle x="230" y="140" width="160" height="26" as="alternateBounds"/>
                    </mxGeometry>
                </mxCell>
                <mxCell id="1" value="nom" style="text;align=left;verticalAlign=top;spacingLeft=4;spacingRight=4;overflow=hidden;rotatable=0;points=[[0,0.5],[1,0.5]];portConstraint=eastwest;rounded=0;labelBackgroundColor=none;fontColor=#393C56;" parent="0" vertex="1">
                    <mxGeometry y="40" width="110" height="26" as="geometry"/>
                </mxCell>
                <mxCell id="2" value="notes&#10;" style="text;align=left;verticalAlign=top;spacingLeft=4;spacingRight=4;overflow=hidden;rotatable=0;points=[[0,0.5],[1,0.5]];portConstraint=eastwest;rounded=0;shadow=0;html=0;labelBackgroundColor=none;fontColor=#393C56;" parent="0" vertex="1">
                    <mxGeometry y="66" width="110" height="26" as="geometry"/>
                </mxCell>
                <mxCell id="5" value="0..n" style="edgeLabel;html=1;align=center;verticalAlign=middle;resizable=0;points=[];rounded=0;labelBackgroundColor=none;fontColor=#393C56;" parent="WIyWlLk6GJQsqaUBKTNV-1" vertex="1" connectable="0">
                    <mxGeometry x="690" y="430" as="geometry">
                        <mxPoint x="51" y="-80" as="offset"/>
                    </mxGeometry>
                </mxCell>
                <mxCell id="6" value="0..n" style="edgeLabel;html=1;align=center;verticalAlign=middle;resizable=0;points=[];rounded=0;labelBackgroundColor=none;fontColor=#393C56;" parent="WIyWlLk6GJQsqaUBKTNV-1" vertex="1" connectable="0">
                    <mxGeometry x="730" y="420" as="geometry">
                        <mxPoint x="4" y="6" as="offset"/>
                    </mxGeometry>
                </mxCell>
                <mxCell id="62" style="edgeStyle=none;html=1;exitX=1;exitY=1;exitDx=0;exitDy=0;entryX=0.036;entryY=0;entryDx=0;entryDy=0;entryPerimeter=0;strokeColor=#FF8000;fontColor=#000000;fillColor=#FF8000;" edge="1" parent="WIyWlLk6GJQsqaUBKTNV-1" source="7" target="p7xlOEMJFDli8GuN8Mlz-21">
                    <mxGeometry relative="1" as="geometry"/>
                </mxCell>
                <mxCell id="7" value="réalisation" style="swimlane;fontStyle=2;align=center;verticalAlign=top;childLayout=stackLayout;horizontal=1;startSize=40;horizontalStack=0;resizeParent=1;resizeLast=0;collapsible=1;marginBottom=0;rounded=0;shadow=0;strokeWidth=1;labelBackgroundColor=none;fillColor=#009999;strokeColor=#67AB9F;fontColor=#393C56;" parent="WIyWlLk6GJQsqaUBKTNV-1" vertex="1">
                    <mxGeometry x="750" y="778" width="110" height="127" as="geometry">
                        <mxRectangle x="230" y="140" width="160" height="26" as="alternateBounds"/>
                    </mxGeometry>
                </mxCell>
                <mxCell id="8" value="date debout &#10;" style="text;align=left;verticalAlign=top;spacingLeft=4;spacingRight=4;overflow=hidden;rotatable=0;points=[[0,0.5],[1,0.5]];portConstraint=eastwest;rounded=0;labelBackgroundColor=none;fontColor=#393C56;" parent="7" vertex="1">
                    <mxGeometry y="40" width="110" height="26" as="geometry"/>
                </mxCell>
                <mxCell id="9" value="date fin&#10;" style="text;align=left;verticalAlign=top;spacingLeft=4;spacingRight=4;overflow=hidden;rotatable=0;points=[[0,0.5],[1,0.5]];portConstraint=eastwest;rounded=0;shadow=0;html=0;labelBackgroundColor=none;fontColor=#393C56;" parent="7" vertex="1">
                    <mxGeometry y="66" width="110" height="26" as="geometry"/>
                </mxCell>
                <mxCell id="10" value="notes&#10;" style="text;align=left;verticalAlign=top;spacingLeft=4;spacingRight=4;overflow=hidden;rotatable=0;points=[[0,0.5],[1,0.5]];portConstraint=eastwest;rounded=0;shadow=0;html=0;labelBackgroundColor=none;fontColor=#393C56;" parent="7" vertex="1">
                    <mxGeometry y="92" width="110" height="26" as="geometry"/>
                </mxCell>
                <mxCell id="11" value="0..n" style="text;html=1;align=center;verticalAlign=middle;resizable=0;points=[];autosize=1;strokeColor=none;fillColor=none;fontSize=11;rounded=0;labelBackgroundColor=none;fontColor=#393C56;" parent="WIyWlLk6GJQsqaUBKTNV-1" vertex="1">
                    <mxGeometry x="170" y="681" width="110" height="30" as="geometry"/>
                </mxCell>
                <mxCell id="29" style="edgeStyle=none;html=1;exitX=0.5;exitY=1;exitDx=0;exitDy=0;entryX=0;entryY=0.5;entryDx=0;entryDy=0;strokeColor=#FF8000;fontColor=#000000;" edge="1" parent="WIyWlLk6GJQsqaUBKTNV-1" source="12" target="qX1tbO1nKQoAiDaZzixz-3">
                    <mxGeometry relative="1" as="geometry"/>
                </mxCell>
                <mxCell id="12" value="temporalité" style="swimlane;fontStyle=2;align=center;verticalAlign=top;childLayout=stackLayout;horizontal=1;startSize=40;horizontalStack=0;resizeParent=1;resizeLast=0;collapsible=1;marginBottom=0;rounded=0;shadow=0;strokeWidth=1;labelBackgroundColor=none;fillColor=#009999;strokeColor=#67AB9F;fontColor=#393C56;" parent="WIyWlLk6GJQsqaUBKTNV-1" vertex="1">
                    <mxGeometry x="180" y="554" width="110" height="127" as="geometry">
                        <mxRectangle x="230" y="140" width="160" height="26" as="alternateBounds"/>
                    </mxGeometry>
                </mxCell>
                <mxCell id="13" value="date" style="text;align=left;verticalAlign=top;spacingLeft=4;spacingRight=4;overflow=hidden;rotatable=0;points=[[0,0.5],[1,0.5]];portConstraint=eastwest;rounded=0;labelBackgroundColor=none;fontColor=#393C56;" parent="12" vertex="1">
                    <mxGeometry y="40" width="110" height="26" as="geometry"/>
                </mxCell>
                <mxCell id="14" value="definition" style="text;align=left;verticalAlign=top;spacingLeft=4;spacingRight=4;overflow=hidden;rotatable=0;points=[[0,0.5],[1,0.5]];portConstraint=eastwest;rounded=0;shadow=0;html=0;labelBackgroundColor=none;fontColor=#393C56;" parent="12" vertex="1">
                    <mxGeometry y="66" width="110" height="26" as="geometry"/>
                </mxCell>
                <mxCell id="15" value="notes&#10;" style="text;align=left;verticalAlign=top;spacingLeft=4;spacingRight=4;overflow=hidden;rotatable=0;points=[[0,0.5],[1,0.5]];portConstraint=eastwest;rounded=0;shadow=0;html=0;labelBackgroundColor=none;fontColor=#393C56;" parent="12" vertex="1">
                    <mxGeometry y="92" width="110" height="26" as="geometry"/>
                </mxCell>
                <mxCell id="19" value="&lt;font color=&quot;#000000&quot;&gt;1&lt;/font&gt;" style="text;html=1;align=center;verticalAlign=middle;resizable=0;points=[];autosize=1;strokeColor=none;fillColor=none;direction=east;shadow=0;" parent="WIyWlLk6GJQsqaUBKTNV-1" vertex="1">
                    <mxGeometry x="850" y="534" width="30" height="30" as="geometry"/>
                </mxCell>
                <mxCell id="21" value="type" style="swimlane;fontStyle=2;align=center;verticalAlign=top;childLayout=stackLayout;horizontal=1;startSize=40;horizontalStack=0;resizeParent=1;resizeLast=0;collapsible=1;marginBottom=0;rounded=0;shadow=0;strokeWidth=1;labelBackgroundColor=none;fillColor=#009999;strokeColor=#67AB9F;fontColor=#393C56;" parent="WIyWlLk6GJQsqaUBKTNV-1" vertex="1">
                    <mxGeometry x="895" y="240" width="110" height="127" as="geometry">
                        <mxRectangle x="230" y="140" width="160" height="26" as="alternateBounds"/>
                    </mxGeometry>
                </mxCell>
                <mxCell id="22" value="date" style="text;align=left;verticalAlign=top;spacingLeft=4;spacingRight=4;overflow=hidden;rotatable=0;points=[[0,0.5],[1,0.5]];portConstraint=eastwest;rounded=0;labelBackgroundColor=none;fontColor=#393C56;" parent="21" vertex="1">
                    <mxGeometry y="40" width="110" height="26" as="geometry"/>
                </mxCell>
                <mxCell id="23" value="definition" style="text;align=left;verticalAlign=top;spacingLeft=4;spacingRight=4;overflow=hidden;rotatable=0;points=[[0,0.5],[1,0.5]];portConstraint=eastwest;rounded=0;shadow=0;html=0;labelBackgroundColor=none;fontColor=#393C56;" parent="21" vertex="1">
                    <mxGeometry y="66" width="110" height="26" as="geometry"/>
                </mxCell>
                <mxCell id="24" value="notes&#10;" style="text;align=left;verticalAlign=top;spacingLeft=4;spacingRight=4;overflow=hidden;rotatable=0;points=[[0,0.5],[1,0.5]];portConstraint=eastwest;rounded=0;shadow=0;html=0;labelBackgroundColor=none;fontColor=#393C56;" parent="21" vertex="1">
                    <mxGeometry y="92" width="110" height="26" as="geometry"/>
                </mxCell>
                <mxCell id="25" style="edgeStyle=none;html=1;exitX=1;exitY=0.5;exitDx=0;exitDy=0;entryX=0;entryY=0.5;entryDx=0;entryDy=0;strokeColor=#FF8000;fontColor=#000000;fillColor=#FF8000;" parent="WIyWlLk6GJQsqaUBKTNV-1" source="24" target="p7xlOEMJFDli8GuN8Mlz-3" edge="1">
                    <mxGeometry relative="1" as="geometry"/>
                </mxCell>
                <mxCell id="26" style="edgeStyle=none;html=1;exitX=0;exitY=0.5;exitDx=0;exitDy=0;entryX=1;entryY=0.75;entryDx=0;entryDy=0;fontColor=#000000;strokeColor=#FF8000;fillColor=#FF8000;" edge="1" parent="WIyWlLk6GJQsqaUBKTNV-1" source="u_57cNiZf8qIz6-0h1pk-41" target="Bw8D9-mf-STMI-rw64IU-0">
                    <mxGeometry relative="1" as="geometry"/>
                </mxCell>
                <mxCell id="27" value="0..n" style="text;html=1;align=center;verticalAlign=middle;resizable=0;points=[];autosize=1;strokeColor=none;fillColor=none;fontSize=11;rounded=0;labelBackgroundColor=none;fontColor=#393C56;" vertex="1" parent="WIyWlLk6GJQsqaUBKTNV-1">
                    <mxGeometry x="650" y="504" width="120" height="30" as="geometry"/>
                </mxCell>
                <mxCell id="28" value="1" style="text;html=1;align=center;verticalAlign=middle;resizable=0;points=[];autosize=1;strokeColor=none;fillColor=none;fontColor=#000000;" vertex="1" parent="WIyWlLk6GJQsqaUBKTNV-1">
                    <mxGeometry x="575" y="475" width="30" height="30" as="geometry"/>
                </mxCell>
                <mxCell id="30" value="1" style="text;html=1;align=center;verticalAlign=middle;resizable=0;points=[];autosize=1;strokeColor=none;fillColor=none;fontColor=#000000;" vertex="1" parent="WIyWlLk6GJQsqaUBKTNV-1">
                    <mxGeometry x="295" y="755" width="30" height="30" as="geometry"/>
                </mxCell>
                <mxCell id="31" value="1" style="text;html=1;align=center;verticalAlign=middle;resizable=0;points=[];autosize=1;strokeColor=none;fillColor=none;fontColor=#000000;" vertex="1" parent="WIyWlLk6GJQsqaUBKTNV-1">
                    <mxGeometry x="705" y="545" width="30" height="30" as="geometry"/>
                </mxCell>
                <mxCell id="41" value="" style="endArrow=classic;html=1;entryX=1.017;entryY=-0.288;entryDx=0;entryDy=0;exitX=0.994;exitY=1.122;exitDx=0;exitDy=0;exitPerimeter=0;rounded=0;labelBackgroundColor=none;fontColor=default;strokeColor=#E07A5F;entryPerimeter=0;" edge="1" parent="WIyWlLk6GJQsqaUBKTNV-1" target="p7xlOEMJFDli8GuN8Mlz-6">
                    <mxGeometry relative="1" as="geometry">
                        <mxPoint x="851.34" y="480.16999999999996" as="sourcePoint"/>
                        <mxPoint x="796.9999999999999" y="552.9979999999997" as="targetPoint"/>
                        <Array as="points">
                            <mxPoint x="891.9999999999999" y="479.99799999999993"/>
                            <mxPoint x="931.9999999999999" y="479.99799999999993"/>
                            <mxPoint x="932" y="520"/>
                        </Array>
                    </mxGeometry>
                </mxCell>
                <mxCell id="42" value="à pere&amp;nbsp;" style="edgeLabel;resizable=0;html=1;align=center;verticalAlign=middle;rounded=0;labelBackgroundColor=none;fontColor=#393C56;rotation=0;" connectable="0" vertex="1" parent="41">
                    <mxGeometry relative="1" as="geometry">
                        <mxPoint x="-22" y="1" as="offset"/>
                    </mxGeometry>
                </mxCell>
                <mxCell id="43" value="1" style="edgeLabel;html=1;align=center;verticalAlign=middle;resizable=0;points=[];rounded=0;labelBackgroundColor=none;fontColor=#393C56;" vertex="1" connectable="0" parent="41">
                    <mxGeometry x="-0.8808" y="-1" relative="1" as="geometry">
                        <mxPoint x="-0.17999999999999972" y="-11" as="offset"/>
                    </mxGeometry>
                </mxCell>
                <mxCell id="44" value="1" style="edgeLabel;html=1;align=center;verticalAlign=middle;resizable=0;points=[];rounded=0;labelBackgroundColor=none;fontColor=#393C56;" vertex="1" connectable="0" parent="41">
                    <mxGeometry x="0.8885" y="-1" relative="1" as="geometry">
                        <mxPoint x="7" y="-9" as="offset"/>
                    </mxGeometry>
                </mxCell>
                <mxCell id="46" value="&lt;font color=&quot;#000000&quot;&gt;1&lt;/font&gt;" style="text;html=1;align=center;verticalAlign=middle;resizable=0;points=[];autosize=1;strokeColor=#FFFFFF;fillColor=none;" vertex="1" parent="WIyWlLk6GJQsqaUBKTNV-1">
                    <mxGeometry x="797" y="575" width="30" height="30" as="geometry"/>
                </mxCell>
                <mxCell id="47" value="1" style="text;html=1;align=center;verticalAlign=middle;resizable=0;points=[];autosize=1;strokeColor=none;fillColor=none;fontColor=#000000;" vertex="1" parent="WIyWlLk6GJQsqaUBKTNV-1">
                    <mxGeometry x="815" y="415" width="30" height="30" as="geometry"/>
                </mxCell>
                <mxCell id="48" value="0...n" style="text;html=1;align=center;verticalAlign=middle;resizable=0;points=[];autosize=1;strokeColor=none;fillColor=none;fontColor=#000000;" vertex="1" parent="WIyWlLk6GJQsqaUBKTNV-1">
                    <mxGeometry x="835" y="355" width="50" height="30" as="geometry"/>
                </mxCell>
                <mxCell id="53" value="0...n" style="text;html=1;align=center;verticalAlign=middle;resizable=0;points=[];autosize=1;strokeColor=none;fillColor=none;fontColor=#000000;" vertex="1" parent="WIyWlLk6GJQsqaUBKTNV-1">
                    <mxGeometry x="1000" y="308" width="50" height="30" as="geometry"/>
                </mxCell>
                <mxCell id="54" value="1" style="text;html=1;align=center;verticalAlign=middle;resizable=0;points=[];autosize=1;strokeColor=none;fillColor=none;fontColor=#000000;" vertex="1" parent="WIyWlLk6GJQsqaUBKTNV-1">
                    <mxGeometry x="1130" y="308" width="30" height="30" as="geometry"/>
                </mxCell>
                <mxCell id="63" value="0...n" style="text;html=1;align=center;verticalAlign=middle;resizable=0;points=[];autosize=1;strokeColor=none;fillColor=none;fontColor=#000000;" vertex="1" parent="WIyWlLk6GJQsqaUBKTNV-1">
                    <mxGeometry x="780" y="736" width="50" height="30" as="geometry"/>
                </mxCell>
                <mxCell id="64" value="0...n" style="text;html=1;align=center;verticalAlign=middle;resizable=0;points=[];autosize=1;strokeColor=none;fillColor=none;fontColor=#000000;" vertex="1" parent="WIyWlLk6GJQsqaUBKTNV-1">
                    <mxGeometry x="855" y="885" width="50" height="30" as="geometry"/>
                </mxCell>
                <mxCell id="65" value="1" style="text;html=1;align=center;verticalAlign=middle;resizable=0;points=[];autosize=1;strokeColor=none;fillColor=none;fontColor=#000000;" vertex="1" parent="WIyWlLk6GJQsqaUBKTNV-1">
                    <mxGeometry x="1015" y="915" width="30" height="30" as="geometry"/>
                </mxCell>
                <mxCell id="66" value="0...n" style="text;html=1;align=center;verticalAlign=middle;resizable=0;points=[];autosize=1;strokeColor=none;fillColor=none;fontColor=#000000;" vertex="1" parent="WIyWlLk6GJQsqaUBKTNV-1">
                    <mxGeometry x="1155" y="960" width="50" height="30" as="geometry"/>
                </mxCell>
                <mxCell id="67" value="0...n" style="text;html=1;align=center;verticalAlign=middle;resizable=0;points=[];autosize=1;strokeColor=none;fillColor=none;fontColor=#000000;" vertex="1" parent="WIyWlLk6GJQsqaUBKTNV-1">
                    <mxGeometry x="1270" y="875" width="50" height="30" as="geometry"/>
                </mxCell>
            </root>
        </mxGraphModel>
    </diagram>
</mxfile>